<svg xmlns="http://www.w3.org/2000/svg" enable-background="new 0 0 2500 2500" viewBox="0 0 2500 2500"><path d="M2015.8,1545.8c-0.1,0-0.1,0-0.2,0c-4-0.2-8.2-0.5-12.3-0.9c-2.7-0.3-4.7-2.8-4.4-5.5c0.3-2.7,2.8-4.7,5.5-4.4
			c3.9,0.4,7.8,0.7,11.6,0.9c2.8,0.1,4.9,2.5,4.8,5.2C2020.7,1543.7,2018.5,1545.8,2015.8,1545.8z M2055.5,1542.5
			c-2.3,0-4.3-1.6-4.9-3.9c-0.6-2.7,1.1-5.4,3.8-6c3.8-0.9,7.5-1.9,11.1-3.1c2.6-0.9,5.4,0.6,6.3,3.2c0.9,2.6-0.6,5.4-3.2,6.3
			c-3.9,1.3-7.9,2.4-12,3.3C2056.3,1542.5,2055.9,1542.5,2055.5,1542.5z M1964.7,1537c-0.5,0-0.9-0.1-1.4-0.2
			c-3.8-1.1-7.7-2.3-11.6-3.6c-2.6-0.9-4-3.7-3.1-6.3c0.9-2.6,3.7-4,6.3-3.1c3.8,1.3,7.6,2.5,11.3,3.5c2.7,0.8,4.2,3.5,3.4,6.2
			C1968.9,1535.5,1966.9,1537,1964.7,1537z M2102.4,1521c-1.5,0-3-0.7-4-2c-1.7-2.2-1.2-5.3,1-7c3-2.3,6-4.7,8.9-7.3
			c2-1.9,5.2-1.7,7.1,0.3c1.9,2,1.7,5.2-0.3,7.1c-3.1,2.8-6.3,5.5-9.6,7.9C2104.5,1520.7,2103.4,1521,2102.4,1521z M2136.9,1482.6
			c-0.9,0-1.8-0.2-2.6-0.8c-2.3-1.5-3.1-4.5-1.6-6.9c2-3.2,4-6.6,5.8-10.1c1.3-2.4,4.3-3.4,6.8-2.1c2.4,1.3,3.4,4.3,2.1,6.8
			c-2,3.7-4,7.3-6.2,10.7C2140.2,1481.8,2138.6,1482.6,2136.9,1482.6z M2158.1,1435.3c-0.5,0-1-0.1-1.5-0.2
			c-2.6-0.8-4.1-3.6-3.3-6.3c1.1-3.7,2.2-7.5,3.2-11.3c0.7-2.7,3.4-4.3,6.1-3.6c2.7,0.7,4.3,3.4,3.6,6.1c-1,4-2.2,7.9-3.4,11.8
			C2162.2,1433.9,2160.3,1435.3,2158.1,1435.3z M2168.9,1384.5c-0.2,0-0.4,0-0.6,0c-2.7-0.3-4.7-2.8-4.3-5.6
			c0.5-3.9,0.9-7.8,1.3-11.8c0.3-2.8,2.7-4.8,5.4-4.5c2.8,0.3,4.8,2.7,4.5,5.4c-0.4,4.1-0.8,8.1-1.3,12.1
			C2173.5,1382.6,2171.4,1384.5,2168.9,1384.5z M2171.8,1332.6c-2.7,0-5-2.2-5-5c0-3.9-0.1-7.9-0.3-11.9c-0.1-2.8,2.1-5.1,4.8-5.2
			c2.7-0.1,5.1,2.1,5.2,4.8c0.1,4,0.2,8.1,0.3,12.1C2176.8,1330.3,2174.6,1332.6,2171.8,1332.6
			C2171.8,1332.6,2171.8,1332.6,2171.8,1332.6z M2168.3,1280.7c-2.5,0-4.7-1.9-5-4.4c-0.5-3.9-1-7.9-1.6-11.8
			c-0.4-2.7,1.5-5.3,4.2-5.7c2.7-0.4,5.3,1.5,5.7,4.2c0.6,4,1.1,8,1.6,12c0.3,2.7-1.6,5.2-4.4,5.6
			C2168.7,1280.7,2168.5,1280.7,2168.3,1280.7z M2159.5,1229.5c-2.3,0-4.4-1.6-4.9-3.9c-0.9-3.8-1.8-7.7-2.7-11.5
			c-0.7-2.7,1-5.4,3.7-6.1c2.7-0.7,5.4,1,6.1,3.7c1,3.9,1.9,7.9,2.8,11.8c0.6,2.7-1.1,5.4-3.8,6
			C2160.3,1229.4,2159.9,1229.5,2159.5,1229.5z M2070,1185.6c-2.7,0-4.9-2.1-5-4.9c-0.1-2.8,2.1-5.1,4.9-5.1c4-0.1,7.9-0.3,11.8-0.5
			c2.7-0.2,5.1,1.9,5.3,4.7c0.2,2.8-1.9,5.1-4.7,5.3c-4,0.2-8.1,0.4-12.2,0.5C2070.1,1185.6,2070.1,1185.6,2070,1185.6z
			 M2030,1184.8c-0.1,0-0.2,0-0.3,0c-4-0.3-8.1-0.6-12.1-1c-2.7-0.3-4.8-2.7-4.5-5.5c0.3-2.7,2.7-4.8,5.5-4.5
			c3.9,0.4,7.9,0.7,11.8,1c2.8,0.2,4.8,2.6,4.6,5.3C2034.8,1182.7,2032.6,1184.8,2030,1184.8z M2121.7,1180.2c-2.3,0-4.4-1.7-4.9-4
			c-0.5-2.7,1.2-5.3,3.9-5.9c3.9-0.8,7.8-1.6,11.5-2.5c2.7-0.7,5.4,1,6.1,3.6s-1,5.4-3.6,6.1c-3.9,1-7.9,1.8-12,2.6
			C2122.3,1180.1,2122,1180.2,2121.7,1180.2z M2145.8,1179.4c-2.1,0-4.1-1.3-4.8-3.5c-1.2-3.8-2.5-7.5-3.8-11.3
			c-0.9-2.6,0.5-5.5,3.1-6.4c2.6-0.9,5.5,0.5,6.4,3.1c1.3,3.8,2.6,7.6,3.9,11.5c0.9,2.6-0.6,5.4-3.2,6.3
			C2146.9,1179.3,2146.4,1179.4,2145.8,1179.4z M1978.5,1178.2c-0.3,0-0.6,0-0.9-0.1c-4-0.7-8-1.5-11.9-2.4
			c-2.7-0.6-4.4-3.2-3.8-5.9c0.6-2.7,3.2-4.4,5.9-3.8c3.8,0.8,7.8,1.6,11.6,2.3c2.7,0.5,4.5,3.1,4,5.8
			C1982.9,1176.5,1980.8,1178.2,1978.5,1178.2z M1928,1165.7c-0.5,0-1-0.1-1.5-0.2c-3.9-1.2-7.7-2.5-11.5-3.8
			c-2.6-0.9-4-3.8-3.1-6.4c0.9-2.6,3.8-4,6.4-3.1c3.7,1.3,7.5,2.5,11.2,3.7c2.6,0.8,4.1,3.6,3.3,6.3
			C1932.1,1164.3,1930.1,1165.7,1928,1165.7z M2171.1,1164.5c-1.9,0-3.7-1.1-4.6-2.9c-1.1-2.5,0-5.5,2.5-6.6
			c3.6-1.6,7.1-3.3,10.6-5.1c2.5-1.3,5.5-0.3,6.7,2.1s0.3,5.5-2.1,6.7c-3.6,1.9-7.3,3.7-11,5.3
			C2172.5,1164.3,2171.8,1164.5,2171.1,1164.5z M1879.6,1146.8c-0.7,0-1.5-0.2-2.2-0.5c-3.7-1.8-7.4-3.6-10.9-5.5
			c-2.4-1.3-3.4-4.3-2.1-6.8c1.3-2.4,4.3-3.4,6.8-2.1c3.4,1.8,7,3.6,10.5,5.3c2.5,1.2,3.5,4.2,2.3,6.7
			C1883.3,1145.7,1881.5,1146.8,1879.6,1146.8z M2215.6,1137.7c-1.5,0-3-0.7-3.9-1.9c-1.7-2.2-1.3-5.3,0.9-7c3.1-2.4,6.1-4.9,9-7.5
			c2.1-1.8,5.2-1.6,7.1,0.5c1.8,2.1,1.6,5.2-0.5,7.1c-3.1,2.7-6.2,5.3-9.5,7.8C2217.7,1137.4,2216.6,1137.7,2215.6,1137.7z
			 M2127.4,1130.8c-1.9,0-3.8-1.1-4.6-3c-1.6-3.6-3.2-7.3-4.9-10.8c-1.2-2.5-0.1-5.5,2.4-6.6c2.5-1.2,5.5-0.1,6.6,2.4
			c1.7,3.6,3.4,7.4,5,11.1c1.1,2.5-0.1,5.5-2.6,6.6C2128.8,1130.6,2128.1,1130.8,2127.4,1130.8z M1835,1120.1c-1,0-2.1-0.3-3-1
			c-3.3-2.5-6.6-5-9.6-7.6c-2.1-1.8-2.4-4.9-0.6-7c1.8-2.1,4.9-2.4,7-0.6c2.9,2.5,6,4.9,9.2,7.3c2.2,1.7,2.7,4.8,1,7
			C1838.1,1119.4,1836.5,1120.1,1835,1120.1z M2252.1,1100.9c-1.1,0-2.1-0.3-3-1c-2.2-1.7-2.6-4.8-0.9-7c2.4-3.1,4.6-6.3,6.8-9.5
			c1.5-2.3,4.6-2.9,6.9-1.4c2.3,1.5,2.9,4.6,1.4,6.9c-2.3,3.4-4.7,6.8-7.2,10C2255,1100.2,2253.6,1100.9,2252.1,1100.9z
			 M2104.2,1084.2c-1.7,0-3.4-0.9-4.4-2.5c-1.9-3.4-4-6.9-6-10.3c-1.4-2.4-0.7-5.4,1.7-6.9c2.4-1.4,5.4-0.7,6.9,1.7
			c2.1,3.4,4.1,7,6.1,10.5c1.4,2.4,0.5,5.5-1.9,6.8C2105.9,1084,2105.1,1084.2,2104.2,1084.2z M1798,1083.9c-1.5,0-3-0.7-4-2
			c-1.9-2.5-3.7-5.1-5.4-7.6c-0.6-0.9-1.1-1.7-1.7-2.6c-1.5-2.3-0.8-5.4,1.5-6.9c2.3-1.5,5.4-0.8,6.9,1.5c0.5,0.8,1.1,1.6,1.6,2.5
			c1.6,2.4,3.2,4.8,5,7.1c1.7,2.2,1.2,5.3-1,7C1800.1,1083.6,1799,1083.9,1798,1083.9z M2277.7,1055.9c-0.6,0-1.3-0.1-1.9-0.4
			c-2.6-1-3.8-3.9-2.8-6.5c1.5-3.6,2.8-7.3,4-11c0.9-2.6,3.7-4,6.3-3.2c2.6,0.9,4,3.7,3.2,6.3c-1.3,3.9-2.7,7.8-4.2,11.6
			C2281.6,1054.7,2279.7,1055.9,2277.7,1055.9z M2076.1,1040.4c-1.5,0-3.1-0.7-4-2.1c-2.3-3.2-4.7-6.4-7.1-9.5
			c-1.7-2.2-1.3-5.3,0.9-7c2.2-1.7,5.3-1.3,7,0.9c2.5,3.2,4.9,6.4,7.3,9.7c1.6,2.2,1.1,5.4-1.1,7
			C2078.2,1040.1,2077.1,1040.4,2076.1,1040.4z M1773.3,1038.4c-2.1,0-4-1.3-4.7-3.3c-1.4-4-2.6-8.1-3.6-12c-0.7-2.7,1-5.4,3.7-6
			c2.7-0.7,5.4,1,6,3.7c0.9,3.6,2,7.3,3.3,11c0.9,2.6-0.4,5.5-3.1,6.4C1774.4,1038.3,1773.8,1038.4,1773.3,1038.4z M2290.4,1005.6
			c-0.2,0-0.4,0-0.6,0c-2.7-0.3-4.7-2.8-4.4-5.5c0.4-3.8,0.7-7.8,0.9-11.6c0.1-2.8,2.5-4.9,5.2-4.8c2.8,0.1,4.9,2.5,4.8,5.2
			c-0.2,4.1-0.5,8.2-1,12.3C2295,1003.7,2292.9,1005.6,2290.4,1005.6z M2042.8,1000.5c-1.3,0-2.6-0.5-3.6-1.5
			c-2.7-2.9-5.5-5.7-8.3-8.4c-2-1.9-2-5.1-0.1-7.1c1.9-2,5.1-2,7.1-0.1c2.9,2.8,5.8,5.7,8.6,8.7c1.9,2,1.8,5.2-0.2,7.1
			C2045.3,1000,2044,1000.5,2042.8,1000.5z M1769,987.3c-0.4,0-0.8,0-1.2-0.1c-2.7-0.6-4.3-3.3-3.7-6c1-4.2,2.4-8.3,4.1-12.2
			c1.1-2.5,4-3.7,6.6-2.6c2.5,1.1,3.7,4.1,2.6,6.6c-1.5,3.4-2.7,6.9-3.5,10.5C1773.3,985.7,1771.3,987.3,1769,987.3z M2004.1,965.7
			c-1.1,0-2.1-0.3-3-1c-0.7-0.5-1.4-1-2.1-1.6c-2.4-1.8-4.9-3.6-7.4-5.3c-2.3-1.6-2.9-4.7-1.3-6.9c1.6-2.3,4.7-2.9,6.9-1.3
			c2.6,1.8,5.3,3.7,7.8,5.6c0.7,0.5,1.4,1.1,2.1,1.6c2.2,1.7,2.6,4.8,0.9,7C2007.1,965.1,2005.6,965.7,2004.1,965.7z M2289.1,953.8
			c-2.4,0-4.6-1.8-4.9-4.2c-0.6-3.8-1.3-7.7-2.1-11.5c-0.6-2.7,1.1-5.4,3.8-5.9c2.7-0.6,5.4,1.1,5.9,3.8c0.9,4,1.6,8.1,2.2,12.1
			c0.4,2.7-1.4,5.3-4.2,5.7C2289.6,953.8,2289.4,953.8,2289.1,953.8z M1798,945.5c-1.5,0-3.1-0.7-4.1-2.1c-1.6-2.2-1.1-5.4,1.1-7
			c3.3-2.4,6.9-4.7,10.7-6.7c2.4-1.3,5.5-0.4,6.8,2c1.3,2.4,0.4,5.5-2,6.8c-3.4,1.9-6.6,3.9-9.6,6.1
			C1800,945.2,1799,945.5,1798,945.5z M1959.3,939.6c-0.7,0-1.3-0.1-2-0.4c-3.6-1.5-7.3-3-10.9-4.3c-2.6-0.9-4-3.8-3-6.4
			c0.9-2.6,3.8-4,6.4-3c3.8,1.4,7.7,2.9,11.4,4.5c2.5,1.1,3.7,4,2.6,6.6C1963.1,938.5,1961.3,939.6,1959.3,939.6z M1845.7,926
			c-2.3,0-4.4-1.7-4.9-4.1c-0.5-2.7,1.2-5.3,4-5.9c4-0.8,8.1-1.4,12.2-1.9c2.7-0.3,5.2,1.6,5.5,4.4c0.3,2.7-1.6,5.2-4.4,5.5
			c-3.9,0.5-7.8,1.1-11.5,1.8C1846.4,925.9,1846.1,926,1845.7,926z M1909.4,925.4c-0.3,0-0.5,0-0.8-0.1c-3.9-0.6-7.8-1.1-11.6-1.5
			c-2.7-0.3-4.8-2.7-4.5-5.5c0.3-2.7,2.7-4.8,5.5-4.5c4,0.4,8.1,0.9,12.2,1.5c2.7,0.4,4.6,3,4.2,5.7
			C1914,923.6,1911.9,925.4,1909.4,925.4z M2275,903.9c-2,0-3.8-1.2-4.6-3.1c-0.7-1.7-1.4-3.3-2.1-5c-0.9-2-1.7-3.9-2.6-5.8
			c-1.2-2.5-0.1-5.5,2.5-6.6c2.5-1.2,5.5-0.1,6.6,2.5c0.9,2,1.8,4,2.7,6c0.8,1.7,1.5,3.4,2.2,5.2c1.1,2.6-0.2,5.5-2.7,6.5
			C2276.3,903.8,2275.6,903.9,2275,903.9z M2131.1,886.1c-2.7,0-4.9-2.1-5-4.9c-0.1-2.8,2.1-5.1,4.9-5.1c3.7-0.1,7.6-0.4,11.5-0.9
			c2.7-0.3,5.2,1.6,5.6,4.4c0.3,2.7-1.6,5.2-4.4,5.6c-4.2,0.5-8.4,0.8-12.4,1C2131.2,886.1,2131.1,886.1,2131.1,886.1z
			 M2091.8,879.8c-0.6,0-1.2-0.1-1.8-0.3c-3.4-1.3-7.3-3.1-11.4-5c-2.5-1.2-3.5-4.2-2.3-6.7s4.2-3.5,6.7-2.3
			c3.8,1.9,7.4,3.5,10.6,4.7c2.6,1,3.8,3.9,2.8,6.5C2095.7,878.6,2093.8,879.8,2091.8,879.8z M2181.7,875.3c-2,0-3.9-1.2-4.7-3.2
			c-1-2.6,0.3-5.5,2.9-6.5c3.6-1.4,7.2-2.9,10.8-4.6c2.5-1.2,5.5-0.1,6.6,2.5c1.2,2.5,0.1,5.5-2.5,6.6c-3.7,1.7-7.6,3.3-11.3,4.8
			C2182.9,875.1,2182.3,875.3,2181.7,875.3z M2251.7,857.4c-1.7,0-3.4-0.9-4.3-2.5c-2-3.4-4.1-6.8-6.2-10.1
			c-0.7-1.2-0.9-2.5-0.6-3.8c-0.2,0.3-0.5,0.5-0.7,0.7c-3.1,2.6-6.4,5.1-9.7,7.6c-2.2,1.6-5.4,1.1-7-1.1c-1.6-2.2-1.1-5.4,1.1-7
			c3.2-2.3,6.3-4.7,9.2-7.2c2.1-1.8,5.3-1.5,7,0.6c1,1.2,1.4,2.8,1,4.3c0.3-0.4,0.8-0.8,1.3-1.1c2.3-1.5,5.4-0.8,6.9,1.6
			c2.1,3.4,4.3,6.9,6.3,10.4c1.4,2.4,0.6,5.4-1.8,6.8C2253.4,857.2,2252.5,857.4,2251.7,857.4z M2046.8,853.9c-1.1,0-2.1-0.3-3-1
			c-3.3-2.5-6.5-5.2-9.6-7.8c-2.1-1.8-2.3-5-0.4-7.1s5-2.3,7.1-0.4c2.8,2.5,5.9,5,9,7.4c2.2,1.7,2.6,4.8,0.9,7
			C2049.8,853.2,2048.3,853.9,2046.8,853.9z M2011.9,815.8c-1.7,0-3.4-0.9-4.4-2.5c-2.1-3.8-4-7.6-5.4-11.5c-1-2.6,0.3-5.5,2.9-6.5
			c2.6-1,5.5,0.3,6.5,2.9c1.3,3.4,2.9,6.8,4.8,10.2c1.4,2.4,0.5,5.5-1.9,6.8C2013.6,815.6,2012.8,815.8,2011.9,815.8z M2222.3,814.6
			c-1.5,0-2.9-0.6-3.9-1.9c-2.5-3.1-5-6.1-7.5-9.1c-1.8-2.1-1.6-5.3,0.5-7.1c2.1-1.8,5.3-1.6,7.1,0.5c2.6,3.1,5.2,6.2,7.8,9.4
			c1.7,2.2,1.4,5.3-0.8,7C2224.5,814.3,2223.4,814.6,2222.3,814.6z M2263.9,813.9c-1,0-2-0.3-2.9-0.9c-2.3-1.6-2.8-4.7-1.2-7
			c2.2-3.1,4.3-6.4,6.3-9.7c1.4-2.4,4.5-3.2,6.8-1.8c2.4,1.4,3.2,4.5,1.8,6.8c-2.1,3.6-4.3,7.1-6.7,10.5
			C2267,813.2,2265.5,813.9,2263.9,813.9z M2186.7,776.7c-1.2,0-2.4-0.4-3.3-1.3c-2.9-2.6-5.9-5.2-8.9-7.7c-2.1-1.8-2.4-4.9-0.7-7
			c1.8-2.1,4.9-2.4,7-0.7c3.1,2.6,6.2,5.3,9.2,8c2.1,1.8,2.2,5,0.4,7.1C2189.4,776.2,2188.1,776.7,2186.7,776.7z M2285.2,766.8
			c-0.4,0-0.8,0-1.2-0.1c-2.7-0.6-4.4-3.3-3.7-6c0.9-3.7,1.6-7.5,2.2-11.4c0.4-2.7,2.9-4.6,5.7-4.2c2.7,0.4,4.6,2.9,4.2,5.7
			c-0.6,4.1-1.4,8.2-2.3,12.2C2289.5,765.2,2287.5,766.8,2285.2,766.8z M2003.8,765.7c-0.4,0-0.7,0-1.1-0.1c-2.7-0.6-4.4-3.3-3.8-6
			c0.1-0.6,0.3-1.2,0.4-1.8c0.9-3.7,2.1-7.2,3.5-10.5c1.1-2.5,4-3.7,6.6-2.6c2.5,1.1,3.7,4,2.6,6.6c-1.2,2.8-2.2,5.8-3,9
			c-0.1,0.5-0.3,1.1-0.4,1.6C2008.2,764.1,2006.1,765.7,2003.8,765.7z M2145.1,745.8c-0.9,0-1.8-0.2-2.6-0.7c-3.4-2-6.8-4-10.2-5.7
			c-2.4-1.3-3.4-4.3-2.1-6.8c1.3-2.4,4.3-3.4,6.8-2.1c3.6,1.9,7.2,3.9,10.7,6c2.4,1.4,3.1,4.5,1.7,6.9
			C2148.4,744.9,2146.8,745.8,2145.1,745.8z M2034.8,726.4c-1.9,0-3.7-1.1-4.6-3c-1.1-2.5,0-5.5,2.5-6.6c3.8-1.7,7.9-3.1,12.2-4.1
			c2.7-0.6,5.4,1,6,3.7c0.6,2.7-1,5.4-3.7,6c-3.7,0.9-7.2,2.1-10.5,3.5C2036.2,726.3,2035.5,726.4,2034.8,726.4z M2097.5,725
			c-0.4,0-0.9-0.1-1.3-0.2c-3.8-1-7.6-1.9-11.3-2.6c-2.7-0.5-4.5-3.1-4-5.8s3.1-4.5,5.8-4c4,0.7,8,1.6,12.1,2.8
			c2.7,0.7,4.2,3.5,3.5,6.1C2101.8,723.6,2099.7,725,2097.5,725z M2287.6,715.1c-2.5,0-4.6-1.8-4.9-4.3c-0.5-3.8-1.2-7.6-2-11.4
			c-0.6-2.7,1.1-5.4,3.8-6c2.7-0.6,5.4,1.1,6,3.8c0.9,4,1.6,8.1,2.2,12.2c0.4,2.7-1.5,5.3-4.3,5.6
			C2288,715.1,2287.8,715.1,2287.6,715.1z M2271.9,665.9c-1.8,0-3.5-1-4.4-2.7c-1.8-3.4-3.7-6.8-5.8-10c-1.5-2.3-0.8-5.4,1.6-6.9
			c2.3-1.5,5.4-0.8,6.9,1.6c2.2,3.5,4.3,7.1,6.2,10.7c1.3,2.4,0.3,5.5-2.1,6.7C2273.5,665.7,2272.7,665.9,2271.9,665.9z
			 M2240.1,625.1c-1.2,0-2.4-0.4-3.3-1.3c-2.9-2.6-5.9-5-9-7.3c-2.2-1.6-2.7-4.8-1-7c1.6-2.2,4.8-2.7,7-1c3.3,2.4,6.6,5.1,9.7,7.8
			c2.1,1.8,2.3,5,0.4,7.1C2242.9,624.5,2241.5,625.1,2240.1,625.1z M2195.6,598.9c-0.5,0-1.1-0.1-1.7-0.3c-3.6-1.3-7.3-2.4-11.1-3.3
			c-2.7-0.7-4.3-3.4-3.6-6.1c0.7-2.7,3.4-4.3,6.1-3.6c4,1,8,2.2,11.9,3.6c2.6,0.9,4,3.8,3.1,6.4
			C2199.6,597.6,2197.6,598.9,2195.6,598.9z"/><path d="M2142.7,549l-42-15c-15.3-5.5-32.2,2.5-37.7,17.8v0c-5.5,15.3,2.5,32.2,17.8,37.7l42,15c15.3,5.5,32.2-2.5,37.7-17.8l0,0
				C2166,571.4,2158,554.5,2142.7,549z"/><ellipse cx="2109.2" cy="511.4" rx="42.5" ry="21.7" transform="matrix(.06699 -.9978 .9978 .06699 1457.717 2581.64)"/><ellipse cx="2151" cy="529.2" fill="#4d4d4d" rx="51.5" ry="26.3" transform="rotate(-44.618 2151.115 529.167)"/><path fill="#ffae3b" d="M2285.1,2052.9c0-0.5,0.1-1,0.1-1.5c0-10.8-8.7-19.5-19.5-19.5h-510.9c8.6-33.4,25.5-100,42.1-166.4
			c26.6-106.4,38-155.4,42.7-178.7H2319c10.8,0,19.5-8.7,19.5-19.5v-291.6c0-8.4-5.4-15.9-13.5-18.5l-760.5-246.2v-76.5
			c0-81.6-58.6-149.7-135.8-164.5c-5.4-16.9-21.2-29.1-39.9-29.1h-105.6c-23.1,0-41.9,18.8-41.9,41.9v0c0,23.1,18.8,41.9,41.9,41.9
			h105.6c13.5,0,25.5-6.4,33.2-16.4c59,11.7,103.6,63.8,103.6,126.2v90.7c0,0.4,0,0.8,0.1,1.2c0,0.3,0,0.5,0,0.8
			c0.1,0.8,0.2,1.6,0.4,2.4l123,537.5l-97.8,379.5c-1.5,5.8-0.2,12,3.5,16.8c0.1,0.1,0.2,0.3,0.4,0.4
			c-32.2,19.8-53.7,55.3-53.7,95.8c0,62,50.4,112.4,112.4,112.4s112.4-50.4,112.4-112.4c0-36-17-68.1-43.4-88.7h497.6
			c-26.4,20.6-43.4,52.7-43.4,88.7c0,62,50.4,112.4,112.4,112.4s112.4-50.4,112.4-112.4C2361.9,2109.9,2329.6,2067.8,2285.1,2052.9z
			 M1923.8,1268.1l20.5,137.8c-57.3-13.9-111.8-27.3-159.9-39.2l-29.8-153.4L1923.8,1268.1z M2299.5,1583.2l-140.6-13.5l-8-91.5
			c67.7,16.3,122.4,29.4,148.7,35.7V1583.2z M2137,1567.6l-148.9-14.2l-17.7-118.8c54.8,13.3,109.3,26.5,158.3,38.3L2137,1567.6z
			 M2002.1,1647.7l-10.8-72.3l147.5,14.1l5.1,58.2H2002.1z M1838.9,1647.7l-17.2-88.5l147.5,14.1l11.1,74.4H1838.9z M1967,1411.4
			l-20.2-135.9l169.5,54.9l10.5,119.7C2073.3,1437.2,2019.2,1424.2,1967,1411.4z M1947.7,1429l18.2,122.2l-148.5-14.2l-28.5-146.9
			C1834.5,1401.4,1887.6,1414.4,1947.7,1429z M1794.9,1534.9l-139.1-13.3l-40.1-175.3c1.5,0.4,3,0.8,4.6,1.2
			c19,5.1,46.9,12.2,82.8,21.3c18.6,4.7,39.6,9.9,62.6,15.6L1794.9,1534.9z M1684.7,1647.7l-23.8-103.9l138.3,13.2l17.6,90.7H1684.7
			z M2165.7,1647.7l-4.9-56.1l138.7,13.3v42.8H2165.7z M2299.5,1491.7c-47.5-11.4-98.5-23.6-150.7-36.2l-10.3-117.8l161,52.1V1491.7
			z M1731,1205.7l30.1,155.2c-71.5-17.7-126.3-31.7-150.9-38.6l-38.5-168.2L1731,1205.7z M1684.3,1686.7h133.3
			c-12,56.5-53.8,222.9-85.2,345.2h-137.1L1684.3,1686.7z M1613.9,2232.9c-40.5,0-73.4-32.9-73.4-73.4c0-40.5,32.9-73.4,73.4-73.4
			s73.4,32.9,73.4,73.4C1687.3,2200,1654.4,2232.9,1613.9,2232.9z M2249.5,2232.9c-40.5,0-73.4-32.9-73.4-73.4
			c0-40.5,32.9-73.4,73.4-73.4c40.5,0,73.4,32.9,73.4,73.4C2322.9,2200,2290,2232.9,2249.5,2232.9z"/><path d="M356.9,1544.6l-217.6,8.4l2.9,74.5l63.3-2.4l-67.4,72.8l10.6,275c0,0,128.6,32.4,154.2-111.7c0,0-1.7-93.6,60.7-143.1
			L356.9,1544.6z"/><path fill="#f8b790" d="M837.2,1258.9c-2,8,24.3,770.9,24.3,770.9h173.6l0-770.9H837.2z"/><path d="M861.5,2029.8v217.8h74.6v-63.4l70.1,70.1h275.2c0,0,37.3-127.3-105.6-158.4c0,0-93.6-1.9-140.6-66.2H861.5z"/><path fill="#f8b790" d="M666,1193.9c-1.9,3.3-39,162.8-78.5,334c-129.2,9.3-230.5,16.8-230.5,16.8l6.7,173.5l181.6-7l50.1-1.9
			c83.2-3.2,154.6-60.3,175.9-140.8l14.6-54.8l71.5-268.9L666,1193.9z"/><polygon points="715.8 749.5 594.2 1341 1056.1 1341 1047.1 777.2"/><path fill="#d85f4b" d="M1036.6,574.2c-6.4-55.6-25.9-91.5-43.4-110c-31.6-33.4-124.1-89.6-194.5-24.8
			c-61.9,83.8-113.9,337.7-113.9,337.7l-23.3,121.8h420.8L1036.6,574.2z"/><path fill="#f8b790" d="M1421.3,826.8l-55.5-8.3c0,0-83.4-53.8-83.9-51.7c-0.5,2.1-50.5,66.1-50.5,66.1l45.4,15.4
			c4.9,28.4,14.6,77.4,24.1,83.8c13.5,9.1,23.2-1.7,23.2-1.7s-0.1,10.2,10.8,8.3c10.9-1.9,11.3-10.2,11.3-10.2s-0.2,9,12.1,7.8
			c12.4-1.2,10.1-11.3,10.1-11.3s3.1,14.1,16.4,7.2c13.3-6.9-5.6-86-5.6-86c22.4,7.3,37.4-2,45.3-9.8
			C1427.8,833.2,1426,827.5,1421.3,826.8z"/><path fill="#d85f4b" d="M955.4,511.4c11,0.9,154.7,189.4,154.7,189.4l189.1,48.8l-77.4,129.2c0,0-159,2.6-251.5-46.9
			C878,782.4,820,667.2,820,667.2S766.3,496.1,955.4,511.4z"/><path d="M1076.7,868.5c-0.1,0-0.2,0-0.3,0c-0.3,0-26.3-3.2-60.9-15.5c-31.9-11.4-78-33.2-116-72.5
			c-72.4-74.9-102-175.4-102.3-176.4c-0.4-1.3,0.4-2.7,1.7-3.1c1.3-0.4,2.7,0.4,3.1,1.7c0.3,1,29.5,100.3,101.1,174.3
			c71.4,73.8,172.9,86.4,173.9,86.5c1.4,0.2,2.4,1.4,2.2,2.8C1079,867.6,1077.9,868.5,1076.7,868.5z"/><path d="M1042,615.4c-0.8,0-1.6-0.4-2-1.1l-89.5-126.8c-0.8-1.1-0.5-2.7,0.6-3.5c1.1-0.8,2.7-0.5,3.5,0.6l89.5,126.8
			c0.8,1.1,0.5,2.7-0.6,3.5C1043,615.2,1042.5,615.4,1042,615.4z"/><path d="M979,325.8c0,0,9.9-60.4-41.8-87.4s-45.1,7.1-84.1,8.2s-61,8.2-65.4,46.2s33,72.5,32.4,74.2c-0.5,1.6-76.9-8.8-93.4,55.5
			c-16.5,64.3,131.5,28.1,131.5,28.1s65.6-67.1,65.4-67.7C923.5,382.4,979,325.8,979,325.8z"/><path fill="#f8b790" d="M951.9,275.7c4.2,0.5-2.9,28.1,18,38.9c20.9,10.8,21.6,10.1,16.6,17.3c-5,7.2,10.5,58.3-16,65.5
			c-26.5,7.2-41.6,7.2-41.6,7.2v57.6c0,0-41,9.4-70.6-11.5l26.6-85c0,0-31-20.9-7.9-45.4s27.4,14.4,27.4,14.4
			S901.5,269.2,951.9,275.7z"/></svg>