<svg xmlns="http://www.w3.org/2000/svg" enable-background="new 0 0 2500 2500" viewBox="0 0 2500 2500"><path fill="#d85f4b" d="M1648.3,2061.2l-47.5,152.6l-388.6-120.9c0,0,5.3-83.3,129.4-60.2l81.2-41.7L1648.3,2061.2z"/><path fill="#d85f4b" d="M2214.3,2102.4l40.8,154.5l-393.5,103.8c0,0-39.7-73.4,77.8-119.7l46.7-78.4L2214.3,2102.4z"/><path d="M1732.7,326.2c0,0-43.2,10.8-32.4-43.2c10.8-54,54-64.8,97.2-43.2s54,21.6,75.6,54c21.6,32.4,0,129.5-64.8,140.3
			C1743.5,445,1732.7,326.2,1732.7,326.2z"/><path d="M1799.3,1276.8l92.2,912.5l379.6-77.8c0,0-230-1148.1-233.8-1155.9l-194.3-0.9l9.4-20.4l-216.9,2.6
			c-7.6,18.7-167.3,317.9-167.3,317.9l-58.8,311.6l-80.9,428.8l307,87.9l109.7-715.1L1799.3,1276.8z"/><path d="M506.2,1260.1c-2.3,0-4.4-1.6-4.9-4c-0.4-1.7,0.2-3.4,1.4-4.6c0.4-0.6,1.7-2.6,5.4-9.2c1.3-2.4,4.4-3.3,6.8-1.9
			c2.4,1.3,3.3,4.4,1.9,6.8c-6.6,11.8-7.1,12.2-9.5,12.7C506.9,1260,506.6,1260.1,506.2,1260.1z M502.6,1251.7
			C502.6,1251.7,502.6,1251.7,502.6,1251.7C502.6,1251.7,502.6,1251.7,502.6,1251.7z M505.2,1250.2
			C505.2,1250.2,505.2,1250.2,505.2,1250.2C505.2,1250.2,505.2,1250.2,505.2,1250.2z M505.2,1250.2
			C505.2,1250.2,505.2,1250.2,505.2,1250.2C505.2,1250.2,505.2,1250.2,505.2,1250.2z M531.4,1214.3c-0.8,0-1.6-0.2-2.3-0.6
			c-2.5-1.3-3.4-4.3-2.1-6.7c1.8-3.4,3.6-6.9,5.5-10.7c1.3-2.5,4.3-3.4,6.7-2.2c2.5,1.3,3.4,4.3,2.2,6.7c-1.9,3.7-3.8,7.3-5.5,10.7
			C534.9,1213.3,533.2,1214.3,531.4,1214.3z M555,1167.8c-0.7,0-1.5-0.2-2.2-0.5c-2.5-1.2-3.5-4.2-2.2-6.7c1.7-3.5,3.5-7.1,5.3-10.8
			c1.2-2.5,4.2-3.5,6.7-2.3c2.5,1.2,3.5,4.2,2.3,6.7c-1.8,3.7-3.6,7.3-5.3,10.8C558.6,1166.8,556.9,1167.8,555,1167.8z M577.9,1121
			c-0.7,0-1.5-0.2-2.2-0.5c-2.5-1.2-3.5-4.2-2.3-6.7c1.7-3.6,3.4-7.2,5.2-10.8c1.2-2.5,4.2-3.5,6.7-2.4c2.5,1.2,3.5,4.2,2.4,6.7
			c-1.8,3.7-3.5,7.3-5.2,10.8C581.6,1120,579.8,1121,577.9,1121z M600.2,1073.9c-0.7,0-1.4-0.2-2.1-0.5c-2.5-1.2-3.6-4.1-2.4-6.6
			c1.7-3.6,3.4-7.2,5-10.9c1.2-2.5,4.1-3.6,6.6-2.4c2.5,1.2,3.6,4.1,2.4,6.6c-1.7,3.7-3.4,7.3-5.1,10.9
			C603.9,1072.9,602.1,1073.9,600.2,1073.9z M621.9,1026.6c-0.7,0-1.4-0.1-2-0.4c-2.5-1.1-3.6-4.1-2.5-6.6c1.6-3.6,3.3-7.3,4.9-10.9
			c1.1-2.5,4.1-3.7,6.6-2.5c2.5,1.1,3.7,4.1,2.5,6.6c-1.6,3.7-3.3,7.3-4.9,11C625.7,1025.5,623.8,1026.6,621.9,1026.6z M643,978.9
			c-0.7,0-1.3-0.1-2-0.4c-2.5-1.1-3.7-4-2.6-6.6c1.6-3.7,3.2-7.3,4.8-11c1.1-2.5,4-3.7,6.6-2.6c2.5,1.1,3.7,4,2.6,6.6
			c-1.6,3.7-3.2,7.4-4.8,11C646.8,977.8,644.9,978.9,643,978.9z M663.4,931c-0.6,0-1.3-0.1-1.9-0.4c-2.5-1.1-3.8-4-2.7-6.5
			c1.5-3.7,3.1-7.4,4.6-11.1c1.1-2.6,4-3.8,6.5-2.7c2.6,1.1,3.8,4,2.7,6.5c-1.5,3.7-3.1,7.4-4.6,11.1
			C667.2,929.9,665.3,931,663.4,931z M683,882.8c-0.6,0-1.2-0.1-1.8-0.4c-2.6-1-3.8-3.9-2.8-6.5c1.5-3.7,2.9-7.4,4.4-11.1
			c1-2.6,3.9-3.8,6.5-2.8c2.6,1,3.8,3.9,2.8,6.5c-1.5,3.7-2.9,7.4-4.4,11.2C686.9,881.6,685,882.8,683,882.8z M701.8,834.3
			c-0.6,0-1.2-0.1-1.8-0.3c-2.6-1-3.9-3.9-2.9-6.4c1.4-3.8,2.8-7.5,4.2-11.3c1-2.6,3.8-3.9,6.4-2.9c2.6,1,3.9,3.8,2.9,6.4
			c-1.4,3.8-2.8,7.5-4.2,11.3C705.7,833,703.8,834.3,701.8,834.3z M719.7,785.3c-0.6,0-1.1-0.1-1.7-0.3c-2.6-0.9-4-3.8-3.1-6.4
			c1.3-3.8,2.6-7.5,4-11.3c0.9-2.6,3.8-4,6.4-3.1c2.6,0.9,4,3.8,3.1,6.4c-1.3,3.8-2.6,7.6-4,11.4C723.7,784,721.7,785.3,719.7,785.3
			z M736.4,736c-0.5,0-1-0.1-1.5-0.2c-2.6-0.9-4.1-3.7-3.2-6.3c1.2-3.8,2.5-7.6,3.7-11.4c0.8-2.6,3.6-4.1,6.3-3.3
			c2.6,0.8,4.1,3.6,3.3,6.3c-1.2,3.8-2.4,7.6-3.7,11.5C740.5,734.7,738.5,736,736.4,736z M751.8,686.2c-0.5,0-0.9-0.1-1.4-0.2
			c-2.7-0.8-4.2-3.6-3.4-6.2c1.1-3.8,2.2-7.7,3.3-11.5c0.8-2.7,3.5-4.2,6.2-3.4c2.7,0.8,4.2,3.5,3.4,6.2c-1.1,3.8-2.2,7.7-3.3,11.6
			C755.9,684.8,753.9,686.2,751.8,686.2z M765.5,636c-0.4,0-0.8,0-1.2-0.2c-2.7-0.7-4.3-3.4-3.6-6.1c1-3.9,1.9-7.8,2.9-11.6
			c0.6-2.7,3.3-4.3,6-3.7c2.7,0.6,4.3,3.3,3.7,6c-0.9,3.9-1.9,7.8-2.9,11.7C769.7,634.5,767.7,636,765.5,636z M617.2,634.2
			c-2.7,0-4.9-2.1-5-4.8c-0.1-2.8,2.1-5.1,4.8-5.2c3.9-0.1,7.8-0.4,11.6-0.8c2.8-0.3,5.2,1.7,5.5,4.4c0.3,2.7-1.7,5.2-4.4,5.5
			c-4.1,0.4-8.2,0.7-12.3,0.8C617.3,634.2,617.2,634.2,617.2,634.2z M577.5,630.4c-0.4,0-0.7,0-1.1-0.1c-4-0.9-8-1.9-12-3.1
			c-2.6-0.8-4.1-3.6-3.3-6.2s3.6-4.1,6.2-3.3c3.7,1.1,7.5,2.1,11.2,2.9c2.7,0.6,4.4,3.3,3.8,6C581.8,628.9,579.8,630.4,577.5,630.4z
			 M667.8,624.1c-2,0-3.9-1.2-4.7-3.2c-1-2.6,0.3-5.5,2.8-6.5c3.6-1.4,7.1-3,10.5-4.7c2.5-1.2,5.5-0.2,6.7,2.3
			c1.2,2.5,0.2,5.5-2.3,6.7c-3.7,1.8-7.5,3.5-11.3,5C669,624,668.4,624.1,667.8,624.1z M529.3,611.4c-0.9,0-1.7-0.2-2.5-0.7
			c-3.5-2.1-7-4.3-10.4-6.6c-2.3-1.6-2.9-4.7-1.3-7c1.6-2.3,4.7-2.9,6.9-1.3c3.2,2.2,6.5,4.3,9.8,6.2c2.4,1.4,3.2,4.5,1.8,6.8
			C532.7,610.5,531,611.4,529.3,611.4z M711.7,597.1c-1.4,0-2.8-0.6-3.8-1.7c-1.8-2.1-1.6-5.2,0.5-7.1c2.9-2.5,5.8-5.1,8.6-7.9
			c2-1.9,5.1-1.9,7.1,0.1c1.9,2,1.9,5.1-0.1,7.1c-3,2.9-6,5.7-9,8.3C714.1,596.7,712.9,597.1,711.7,597.1z M777,585.2
			c-0.3,0-0.7,0-1-0.1c-2.7-0.5-4.5-3.2-3.9-5.9c0.8-3.9,1.5-7.9,2.3-11.7c0.5-2.7,3.1-4.5,5.8-4c2.7,0.5,4.5,3.1,4,5.8
			c-0.7,3.9-1.5,7.9-2.3,11.9C781.4,583.6,779.3,585.2,777,585.2z M489.1,578.9c-1.4,0-2.7-0.5-3.7-1.6c-2.8-3-5.5-6.2-8-9.4
			c-1.7-2.2-1.4-5.3,0.8-7c2.2-1.7,5.3-1.4,7,0.8c2.4,3,5,6,7.6,8.8c1.9,2,1.7,5.2-0.3,7.1C491.5,578.4,490.3,578.9,489.1,578.9z
			 M746.6,558.7c-1,0-2.1-0.3-3-1c-2.2-1.6-2.7-4.8-1-7c2.3-3.1,4.6-6.3,6.9-9.6c1.6-2.3,4.7-2.8,7-1.3c2.3,1.6,2.8,4.7,1.3,7
			c-2.4,3.4-4.7,6.8-7.1,9.9C749.6,558,748.1,558.7,746.6,558.7z M460.3,535.8c-1.9,0-3.7-1.1-4.5-2.9c-1.7-3.8-3.3-7.6-4.7-11.4
			c-1-2.6,0.4-5.5,3-6.4c2.6-1,5.5,0.4,6.4,3c1.3,3.6,2.8,7.2,4.4,10.7c1.2,2.5,0.1,5.5-2.5,6.6C461.7,535.7,461,535.8,460.3,535.8z
			 M785.6,533.9c-0.2,0-0.4,0-0.7,0c-2.7-0.4-4.7-2.9-4.3-5.6c0.5-4,1-7.9,1.4-11.8c0.3-2.7,2.8-4.7,5.5-4.4
			c2.7,0.3,4.7,2.8,4.4,5.5c-0.4,3.9-0.9,8-1.4,12C790.2,532.1,788,533.9,785.6,533.9z M774.9,515.1c-0.9,0-1.7-0.2-2.5-0.7
			c-2.4-1.4-3.2-4.5-1.8-6.8c1.9-3.3,3.9-6.7,6-10.3c1.4-2.4,4.4-3.2,6.8-1.9c2.4,1.4,3.2,4.4,1.9,6.8c-2.1,3.7-4.1,7.1-6,10.5
			C778.3,514.2,776.6,515.1,774.9,515.1z M447.3,485.8c-2.6,0-4.8-2-5-4.7c-0.2-2.7-0.3-5.4-0.3-8.1c0-1.5,0-2.9,0.1-4.4
			c0.1-2.8,2.4-4.9,5.2-4.8c2.8,0.1,4.9,2.4,4.8,5.2c0,1.3-0.1,2.7-0.1,4c0,2.5,0.1,5,0.2,7.5c0.2,2.8-1.9,5.1-4.7,5.3
			C447.5,485.8,447.4,485.8,447.3,485.8z M789.8,482c0,0-0.1,0-0.1,0c-2.8-0.1-4.9-2.4-4.9-5.1c0.1-3.5,0.1-7,0.1-10.4l0-1.4
			c0-2.8,2.2-5,5-5c0,0,0,0,0,0c2.8,0,5,2.2,5,5l0,1.5c0,3.5-0.1,7.1-0.1,10.7C794.7,479.9,792.5,482,789.8,482z M800.3,469.7
			c-0.8,0-1.6-0.2-2.4-0.6c-2.4-1.3-3.3-4.4-2-6.8c1.9-3.5,3.9-7,5.8-10.5c1.3-2.4,4.4-3.3,6.8-2c2.4,1.3,3.3,4.4,2,6.8
			c-1.9,3.5-3.9,7-5.8,10.5C803.8,468.8,802.1,469.7,800.3,469.7z M455.2,434.8c-0.6,0-1.2-0.1-1.8-0.4c-2.6-1-3.8-3.9-2.8-6.5
			c1.5-3.8,3.3-7.7,5.2-11.4c1.3-2.4,4.3-3.4,6.7-2.1s3.4,4.3,2.1,6.7c-1.8,3.4-3.4,6.9-4.8,10.4
			C459.1,433.6,457.2,434.8,455.2,434.8z M787.2,430.2c-2.4,0-4.6-1.8-4.9-4.3c-0.6-4-1.2-7.8-2-11.5c-0.5-2.7,1.2-5.3,3.9-5.9
			c2.7-0.6,5.3,1.2,5.9,3.9c0.8,3.9,1.5,8,2.1,12.1c0.4,2.7-1.5,5.3-4.2,5.7C787.7,430.2,787.5,430.2,787.2,430.2z M825.9,424.4
			c-0.9,0-1.8-0.2-2.6-0.7c-2.4-1.4-3.1-4.5-1.7-6.9c2.1-3.6,4.2-7,6.3-10.3c1.5-2.3,4.5-3.1,6.9-1.6c2.3,1.5,3.1,4.5,1.6,6.9
			c-2,3.2-4.1,6.7-6.2,10.2C829.3,423.6,827.6,424.4,825.9,424.4z M484,392c-1.3,0-2.6-0.5-3.6-1.5c-1.9-2-1.9-5.1,0-7.1
			c2.9-2.9,6-5.7,9.2-8.3c2.1-1.8,5.3-1.5,7,0.6c1.8,2.1,1.5,5.3-0.6,7c-3,2.5-5.9,5.1-8.6,7.8C486.5,391.6,485.3,392,484,392z
			 M854.6,381c-1,0-2.1-0.3-3-1c-2.2-1.7-2.7-4.8-1-7c2.5-3.3,5-6.5,7.5-9.6c1.7-2.2,4.9-2.5,7-0.8c2.2,1.7,2.5,4.9,0.8,7
			c-2.4,3-4.8,6.1-7.2,9.3C857.6,380.3,856.1,381,854.6,381z M772.6,380.5c-1.8,0-3.6-1-4.5-2.7c-1.8-3.5-3.7-6.8-5.7-9.9
			c-1.5-2.3-0.9-5.4,1.5-6.9c2.3-1.5,5.4-0.9,6.9,1.5c2.2,3.4,4.3,7.1,6.2,10.9c1.2,2.5,0.3,5.5-2.2,6.7
			C774.1,380.4,773.3,380.5,772.6,380.5z M526.1,362c-1.8,0-3.5-1-4.4-2.7c-1.3-2.4-0.3-5.5,2.1-6.7c3.5-1.8,7.3-3.6,11-5.4
			c2.5-1.1,5.5,0,6.6,2.5c1.1,2.5,0,5.5-2.5,6.6c-3.6,1.6-7.2,3.4-10.5,5.1C527.7,361.8,526.9,362,526.1,362z M574.4,343.1
			c-2.2,0-4.2-1.4-4.8-3.6c-0.8-2.7,0.8-5.4,3.4-6.2c3.8-1.1,7.8-2.2,11.8-3.2c2.7-0.7,5.4,1,6.1,3.6c0.7,2.7-1,5.4-3.6,6.1
			c-3.9,1-7.7,2-11.4,3.1C575.4,343,574.9,343.1,574.4,343.1z M738.3,342.4c-0.9,0-1.8-0.2-2.6-0.7c-3.2-1.9-6.5-3.7-10-5.2
			c-2.5-1.1-3.7-4.1-2.6-6.6c1.1-2.5,4.1-3.7,6.6-2.6c3.9,1.7,7.7,3.7,11.2,5.8c2.4,1.4,3.1,4.5,1.7,6.9
			C741.6,341.6,740,342.4,738.3,342.4z M889.1,342.3c-1.4,0-2.7-0.5-3.7-1.6c-1.9-2-1.7-5.2,0.3-7.1c3-2.8,6.1-5.5,9.2-8
			c2.1-1.8,5.3-1.4,7,0.7c1.8,2.1,1.4,5.3-0.7,7c-3,2.4-5.9,5-8.8,7.7C891.5,341.8,890.3,342.3,889.1,342.3z M625.2,332.3
			c-2.4,0-4.6-1.8-4.9-4.3c-0.4-2.7,1.5-5.3,4.2-5.7c3.9-0.6,8-1.1,12-1.6c2.7-0.3,5.2,1.6,5.6,4.4c0.3,2.7-1.6,5.2-4.4,5.6
			c-3.9,0.5-7.9,1-11.8,1.6C625.7,332.3,625.5,332.3,625.2,332.3z M689,327.9c-0.1,0-0.2,0-0.3,0c-3.4-0.2-6.9-0.3-10.4-0.3l-1.2,0
			c0,0,0,0,0,0c-2.7,0-5-2.2-5-5c0-2.8,2.2-5,5-5l1.3,0c3.8,0,7.5,0.1,11.1,0.4c2.8,0.2,4.8,2.6,4.7,5.3
			C693.8,325.9,691.6,327.9,689,327.9z M931.3,312.4c-1.8,0-3.6-1-4.4-2.7c-1.3-2.5-0.3-5.5,2.1-6.7c3.6-1.9,7.4-3.7,11.1-5.3
			c2.5-1.1,5.5,0,6.6,2.6c1.1,2.5,0,5.5-2.6,6.6c-3.5,1.5-7.1,3.2-10.5,5C932.8,312.2,932,312.4,931.3,312.4z M980,295.4
			c-2.3,0-4.4-1.6-4.9-4c-0.5-2.7,1.2-5.3,3.9-5.9c4-0.8,8-1.5,12.1-2c2.7-0.4,5.3,1.5,5.6,4.3c0.4,2.7-1.5,5.3-4.3,5.6
			c-3.9,0.5-7.7,1.2-11.5,1.9C980.7,295.4,980.3,295.4,980,295.4z M1043.7,292.2c-0.1,0-0.3,0-0.4,0c-4-0.3-7.9-0.5-11.8-0.7
			c-2.8-0.1-4.9-2.4-4.8-5.2c0.1-2.8,2.4-4.9,5.2-4.8c4,0.1,8.1,0.4,12.2,0.7c2.8,0.2,4.8,2.6,4.6,5.4
			C1048.4,290.2,1046.2,292.2,1043.7,292.2z"/><path d="M291.6,2231.6c0,63,51.2,114.2,114.2,114.2s114.2-51.2,114.2-114.2c0-36.6-17.3-69.2-44.1-90.1h505.7
			c-26.8,20.9-44.1,53.5-44.1,90.1c0,63,51.2,114.2,114.2,114.2s114.2-51.2,114.2-114.2c0-41.1-21.8-77.2-54.5-97.3
			c0.1-0.1,0.3-0.3,0.4-0.4c3.7-4.8,5-11.1,3.5-17.1l-99.4-385.7l125-546.2c0.2-0.8,0.3-1.6,0.4-2.4c0-0.3,0-0.5,0-0.8
			c0-0.4,0.1-0.8,0.1-1.2v-92.1c0-63.4,45.3-116.3,105.3-128.2c7.8,10.1,20,16.6,33.7,16.6h107.3c23.5,0,42.6-19.1,42.6-42.6v0
			c0-23.5-19.1-42.6-42.6-42.6h-107.3c-19,0-35,12.4-40.5,29.5c-78.5,15.1-138,84.3-138,167.2v77.7l-772.7,250.2
			c-8.2,2.6-13.7,10.2-13.7,18.8v296.3c0,10.9,8.9,19.8,19.8,19.8h487.2c4.7,23.7,16.4,73.5,43.4,181.6
			c16.9,67.6,34.1,135.2,42.8,169.1H389.4c-10.9,0-19.8,8.9-19.8,19.8c0,0.5,0,1,0.1,1.6C324.4,2138.4,291.6,2181.3,291.6,2231.6z
			 M908.8,1270.2l-30.3,155.8c-48.9,12.1-104.3,25.7-162.5,39.8l20.8-140L908.8,1270.2z M355,1575.6c26.7-6.4,82.3-19.7,151.1-36.3
			l-8.1,93L355,1646V1575.6z M528.6,1533.9c49.8-12,105.1-25.4,160.8-38.9l-18,120.8l-151.3,14.5L528.6,1533.9z M513.1,1711.6
			l5.2-59.1l149.9-14.3l-10.9,73.4H513.1z M679.5,1711.6l11.3-75.6l149.9-14.3l-17.5,89.9H679.5z M530.7,1510.8l10.7-121.6
			l172.2-55.7l-20.6,138.1C639.9,1484.4,584.9,1497.7,530.7,1510.8z M873.9,1449.9l-29,149.3L694,1613.6l18.5-124.2
			C773.6,1474.5,827.6,1461.3,873.9,1449.9z M897.4,1444c23.5-5.8,44.7-11.1,63.7-15.9c36.5-9.2,64.8-16.4,84.1-21.6
			c1.6-0.4,3.2-0.9,4.7-1.3l-40.8,178.1L867.8,1597L897.4,1444z M845.5,1711.6l17.9-92.1l140.5-13.4l-24.2,105.6H845.5z M355,1711.6
			v-43.5l141-13.5l-5,57H355z M355,1449.5l163.6-53l-10.5,119.7c-53,12.8-104.8,25.2-153.1,36.8V1449.5z M1094.6,1210.1l-39.1,171
			c-25,7-80.7,21.2-153.4,39.2l30.6-157.8L1094.6,1210.1z M1070.6,2101.9H931.3c-31.9-124.3-74.4-293.3-86.5-350.7h135.4
			L1070.6,2101.9z M977.1,2231.6c0-41.2,33.5-74.6,74.6-74.6c41.2,0,74.6,33.5,74.6,74.6c0,41.2-33.5,74.6-74.6,74.6
			C1010.6,2306.2,977.1,2272.8,977.1,2231.6z M331.2,2231.6c0-41.2,33.5-74.6,74.6-74.6s74.6,33.5,74.6,74.6
			c0,41.2-33.5,74.6-74.6,74.6S331.2,2272.8,331.2,2231.6z"/><path fill="#5975ca" d="M894.7,788.8H354.5c-69.4,0-125.7,56.3-125.7,125.7v0c0,69.4,56.3,125.7,125.7,125.7h540.2
			c69.4,0,125.7-56.3,125.7-125.7v0C1020.4,845.1,964.2,788.8,894.7,788.8z"/><path fill="#fff" d="M438.4,921.2c17.3,0,31.4-14.1,31.4-31.4s-14.1-31.4-31.4-31.4c-15.7,0-30.4,6.1-41.5,17.2
				c-9.6,9.6-15.5,22-16.9,35.3c-0.2,0.7-0.3,1.5-0.3,2.3c0,0.4,0,0.7,0.1,1.1c0,1-0.1,1.9-0.1,2.9v19.6c0,17.2,14,31.2,31.2,31.2
				h27.7c17.2,0,31.2-14,31.2-31.2c0-4.5-3.6-8.1-8.1-8.1s-8.1,3.6-8.1,8.1c0,8.3-6.8,15.1-15.1,15.1h-27.7
				c-8.3,0-15.1-6.8-15.1-15.1v-15.5H438.4z M438.4,874.5c8.4,0,15.3,6.9,15.3,15.3s-6.9,15.3-15.3,15.3h-40.8
				C402.8,887.4,419.1,874.5,438.4,874.5z"/><path fill="#fff" d="M554.3,858.3h-2c-7.4,0-14.1,3.2-18.8,8.4c-0.9-1-1.9-1.9-3-2.8c-4.5-3.6-10.1-5.6-15.8-5.6
				c-13.9,0-25.3,11.3-25.3,25.3v76.2c0,4.5,3.6,8.1,8.1,8.1s8.1-3.6,8.1-8.1v-76.2c0-5,4.1-9.1,9.1-9.1c4.1,0,7.6,2.7,8.8,6.5
				l0.7,28.7c0.1,4.2,3.5,7.7,7.7,7.9c4.2,0.2,7.9-3,8.4-7.2l2.8-25.9c0-0.3,0-0.6,0-0.9c0-5,4.1-9.1,9.1-9.1h2c5,0,9.1,4.1,9.1,9.1
				v76.2c0,4.5,3.6,8.1,8.1,8.1c4.5,0,8.1-3.6,8.1-8.1v-76.2C579.6,869.7,568.2,858.3,554.3,858.3z"/><path fill="#fff" d="M670.9,951.7h-6.6c-12.3,0-22.4-10-22.4-22.4v-31.5h18.2c4.5,0,8.1-3.6,8.1-8.1s-3.6-8.1-8.1-8.1H642v-41.8
				c0-4.5-3.6-8.1-8.1-8.1c-4.5,0-8.1,3.6-8.1,8.1v41.8h-18.7c-4.5,0-8.1,3.6-8.1,8.1s3.6,8.1,8.1,8.1h18.7v31.5
				c0,21.2,17.3,38.5,38.5,38.5h6.6c4.5,0,8.1-3.6,8.1-8.1C679,955.3,675.4,951.7,670.9,951.7z"/><path fill="#fff" d="M747.4,862.4l-40.7,0c0,0,0,0,0,0c-2.1,0-4.2,0.8-5.7,2.4c-1.5,1.5-2.4,3.6-2.4,5.7l-0.1,118.7
				c0,4.5,3.6,8.1,8.1,8.1c0,0,0,0,0,0c4.5,0,8.1-3.6,8.1-8.1l0-51.3l32.6,0c0,0,0,0,0,0c15,0,26.8-16.6,26.8-37.7
				c0-9.4-2.4-18.4-6.7-25.3C762.5,866.9,755.2,862.4,747.4,862.4z M747.4,921.7C747.4,921.7,747.4,921.7,747.4,921.7l-32.6,0
				l0-43.2l32.6,0c2.1,0,4.5,1.8,6.4,4.9c2.7,4.3,4.2,10.4,4.2,16.7C758.1,913.3,751.8,921.7,747.4,921.7z"/><path fill="#fff" d="M861.5,862.3c-4.5,0-8.1,3.6-8.1,8.1v17.6v0.4c0,8.2-2.2,16.1-6,21.7c-1.9,2.7-5.8,7.4-11.2,7.4H824
				c-6.6,0-14-10-14-24.4v-22.8c0-4.5-3.6-8.1-8.1-8.1c-4.5,0-8.1,3.6-8.1,8.1v22.8c0,10.3,2.8,20,7.9,27.5c5.6,8.3,13.8,13,22.3,13
				h12.2c6.1,0,12.1-2.3,17.2-6.4v10c0,9.9-2.7,19.4-7.3,26.2c-2.3,3.4-7.3,9.2-14.3,9.2h-29.9c-4.5,0-8.1,3.6-8.1,8.1
				s3.6,8.1,8.1,8.1h29.9c5.5,0,10.8-1.6,15.8-4.6c4.5-2.8,8.5-6.7,11.8-11.6c6.5-9.5,10.1-22.1,10.1-35.3v-48.8v-0.4v-17.6
				C869.6,866,865.9,862.3,861.5,862.3z"/><path d="M1226.6,253l-69.6-9.5c-25.5-3.5-48.9,14.3-52.4,39.8v0c-3.5,25.5,14.3,48.9,39.8,52.4l69.6,9.5
				c25.5,3.5,48.9-14.3,52.4-39.8v0C1269.9,279.9,1252.1,256.4,1226.6,253z"/><ellipse cx="1162.8" cy="205.7" rx="34.3" ry="67" transform="rotate(-8.069 1162.89 205.594)"/><ellipse cx="1233.1" cy="219.6" fill="#4d4d4d" rx="81.2" ry="41.5" transform="rotate(-56.539 1233 219.627)"/><path fill="#d85f4b" d="M1641.3,612.6c6.8-58.7,27.3-96.7,45.8-116.2c33.4-35.3,131.1-94.6,205.4-26.2
			c65.4,88.5,120.3,356.7,120.3,356.7l24.6,128.6H1593L1641.3,612.6z"/><path fill="#f8b790" d="M1234.9,879.3l58.6-8.8c0,0,88.1-56.8,88.6-54.6c0.5,2.2,53.4,69.9,53.4,69.9l-47.9,16.3
			c-5.2,30-15.5,81.8-25.5,88.6c-14.2,9.6-24.5-1.8-24.5-1.8s0.1,10.7-11.4,8.8c-11.5-2-11.9-10.8-11.9-10.8s0.2,9.5-12.8,8.2
			c-13-1.3-10.7-11.9-10.7-11.9s-3.2,14.9-17.3,7.6c-14.1-7.3,5.9-90.9,5.9-90.9c-23.7,7.7-39.5-2.1-47.8-10.3
			C1228,886.1,1230,880,1234.9,879.3z"/><path fill="#d85f4b" d="M1727,546.2c-11.6,0.9-163.4,200-163.4,200l-199.8,51.5l81.7,136.5c0,0,168,2.7,265.6-49.5
			c97.6-52.2,158.9-173.9,158.9-173.9S1926.8,530,1727,546.2z"/><path d="M1598.9,923.2c-1.3,0-2.3-0.9-2.5-2.2c-0.2-1.4,0.8-2.6,2.2-2.8c0.3,0,27.3-3.3,63.4-16.2c33.2-11.9,81-34.5,120.4-75.2
			c75.6-78.2,106.5-183.1,106.8-184.1c0.4-1.3,1.8-2.1,3.1-1.7c1.3,0.4,2.1,1.8,1.7,3.1c-0.3,1.1-31.5,107.2-108,186.2
			c-40.1,41.4-88.7,64.5-122.4,76.5c-36.5,13-64,16.4-64.3,16.4C1599.1,923.2,1599,923.2,1598.9,923.2z"/><path d="M1635.5,655.9c-0.5,0-1-0.1-1.4-0.5c-1.1-0.8-1.4-2.4-0.6-3.5L1728,518c0.8-1.1,2.4-1.4,3.5-0.6c1.1,0.8,1.4,2.4,0.6,3.5
			l-94.5,133.9C1637.1,655.5,1636.3,655.9,1635.5,655.9z"/><path fill="#f8b790" d="M1730.7,297.3c-4.4,0.6,3,29.7-19,41.1s-22.8,10.6-17.5,18.3s-11.1,61.6,16.9,69.2c28,7.6,44,7.6,44,7.6v60.8
			c0,0,43.4,9.9,74.5-12.2l-28.1-89.7c0,0,32.7-22.1,8.4-47.9c-24.3-25.9-28.9,15.2-28.9,15.2S1784,290.4,1730.7,297.3z"/><path d="M1799.3,1279.3c-1.1,0-2.1-0.7-2.4-1.8c-30.9-110.4-78.4-276.9-82.8-284.7c-0.8-1-0.7-2.4,0.2-3.3c1-1,2.6-1,3.5,0
			c1.1,1.1,3.3,3.3,44,145.5c20,70,39.8,140.4,40,141.1c0.4,1.3-0.4,2.7-1.7,3.1C1799.8,1279.3,1799.5,1279.3,1799.3,1279.3z
			 M1714.3,993C1714.3,993,1714.3,993,1714.3,993C1714.3,993,1714.3,993,1714.3,993z"/></svg>